<svg xmlns="http://www.w3.org/2000/svg" width="18" height="20" viewBox="0 0 18 20">
  <defs>
    <style>
      .cls-1 {
        fill-rule: evenodd;
      }
    </style>
  </defs>
  <path id="user" class="cls-1" d="M8.39,13.013c3.892-.063,6.954,1.04,8.582,3.265,0.415,0.568,1.5,2.419.765,3.385a1.072,1.072,0,0,1-1.578-.024,3.073,3.073,0,0,1-.239-1.1,2.986,2.986,0,0,0-.454-0.984A7,7,0,0,0,11.116,15.2l-1.888-.192-1.554.1c-2.3.406-4.3,0.989-5.307,2.665-0.289.479-.236,1.453-0.55,1.873a1.072,1.072,0,0,1-1.578.024c-0.647-.86.2-2.559,0.574-3.121a8.34,8.34,0,0,1,5.116-3.193L7.7,13.061Zm0.685-13A6.012,6.012,0,1,1,3.09,6.026,6,6,0,0,1,9.075.015ZM9.036,2.089a3.938,3.938,0,1,1-3.92,3.938A3.929,3.929,0,0,1,9.036,2.089Z"/>
</svg>