<svg width="20" height="20" viewBox="0 0 20 20" fill="none" xmlns="http://www.w3.org/2000/svg">
<path fill-rule="evenodd" clip-rule="evenodd" d="M4.86676 13.4575C2.42303 10.319 2.64375 5.77838 5.52894 2.89319C8.65313 -0.231 13.7185 -0.231 16.8426 2.89319C19.9668 6.01739 19.9668 11.0827 16.8426 14.2069C13.9575 17.0921 9.4168 17.3128 6.27832 14.8691C6.26477 14.8844 6.25069 14.8994 6.23604 14.914L1.9934 19.1567C1.60288 19.5472 0.969713 19.5472 0.579189 19.1567C0.188665 18.7661 0.188665 18.133 0.579189 17.7424L4.82183 13.4998C4.83647 13.4852 4.85146 13.4711 4.86676 13.4575ZM6.94315 4.30741C4.60001 6.65055 4.60001 10.4495 6.94315 12.7927C9.2863 15.1358 13.0853 15.1358 15.4284 12.7927C17.7716 10.4495 17.7716 6.65055 15.4284 4.30741C13.0853 1.96426 9.2863 1.96426 6.94315 4.30741Z" fill="black" fill-opacity="0.38"/>
</svg>
