<svg width="18" height="18" viewBox="0 0 18 18" fill="none" xmlns="http://www.w3.org/2000/svg" xmlns:xlink="http://www.w3.org/1999/xlink">
<path d="M16.7816 8.75456C16.6524 6.69868 15.8602 4.9536 14.4051 3.51931C12.95 2.08503 11.183 1.30754 9.10405 1.18685V0C10.3027 0.0482925 11.4295 0.309135 12.4846 0.782518C13.5398 1.25592 14.4663 1.88758 15.2642 2.67749C16.0622 3.46737 16.7013 4.38232 17.1816 5.42233C17.6618 6.46232 17.9298 7.57307 17.9857 8.75456H16.7816ZM12.3591 8.75456C12.2299 7.91638 11.8677 7.20326 11.2724 6.61522C10.6772 6.02714 9.9544 5.67611 9.10405 5.56211V4.3753C10.2877 4.48928 11.2945 4.9543 12.1245 5.77035C12.9544 6.58638 13.434 7.58112 13.5632 8.75456H12.3591ZM16.8265 18C14.8523 18 12.866 17.5004 10.8674 16.5013C8.86868 15.5023 7.06461 14.2111 5.45508 12.6279C3.84557 11.0448 2.53401 9.26988 1.52039 7.3032C0.506798 5.33651 0 3.38021 0 1.43431C0 1.10383 0.111757 0.828428 0.335269 0.608116C0.558778 0.387784 0.838175 0.277617 1.17345 0.277617H4.20403C4.47464 0.277617 4.71066 0.363786 4.9121 0.536122C5.11353 0.708458 5.24417 0.940805 5.30405 1.23315L5.93874 4.04537C5.98092 4.30285 5.9748 4.53687 5.92038 4.74742C5.86595 4.95797 5.76176 5.13243 5.60782 5.27078L3.10608 7.68239C4.12378 9.35069 5.25236 10.7897 6.49182 11.9993C7.73128 13.209 9.15985 14.249 10.7775 15.1194L13.1755 12.6672C13.3524 12.4754 13.5507 12.342 13.7704 12.2669C13.9902 12.1917 14.2183 12.1804 14.4551 12.2327L17.0306 12.7919C17.3218 12.8508 17.5561 12.9869 17.7337 13.2002C17.9112 13.4134 18 13.669 18 13.9667V16.8433C18 17.1738 17.8882 17.4491 17.6647 17.6695C17.4412 17.8898 17.1618 18 16.8265 18Z" fill="url(#pattern0)"/>
<path d="M16.7816 8.75456C16.6524 6.69868 15.8602 4.9536 14.4051 3.51931C12.95 2.08503 11.183 1.30754 9.10405 1.18685V0C10.3027 0.0482925 11.4295 0.309135 12.4846 0.782518C13.5398 1.25592 14.4663 1.88758 15.2642 2.67749C16.0622 3.46737 16.7013 4.38232 17.1816 5.42233C17.6618 6.46232 17.9298 7.57307 17.9857 8.75456H16.7816ZM12.3591 8.75456C12.2299 7.91638 11.8677 7.20326 11.2724 6.61522C10.6772 6.02714 9.9544 5.67611 9.10405 5.56211V4.3753C10.2877 4.48928 11.2945 4.9543 12.1245 5.77035C12.9544 6.58638 13.434 7.58112 13.5632 8.75456H12.3591ZM16.8265 18C14.8523 18 12.866 17.5004 10.8674 16.5013C8.86868 15.5023 7.06461 14.2111 5.45508 12.6279C3.84557 11.0448 2.53401 9.26988 1.52039 7.3032C0.506798 5.33651 0 3.38021 0 1.43431C0 1.10383 0.111757 0.828428 0.335269 0.608116C0.558778 0.387784 0.838175 0.277617 1.17345 0.277617H4.20403C4.47464 0.277617 4.71066 0.363786 4.9121 0.536122C5.11353 0.708458 5.24417 0.940805 5.30405 1.23315L5.93874 4.04537C5.98092 4.30285 5.9748 4.53687 5.92038 4.74742C5.86595 4.95797 5.76176 5.13243 5.60782 5.27078L3.10608 7.68239C4.12378 9.35069 5.25236 10.7897 6.49182 11.9993C7.73128 13.209 9.15985 14.249 10.7775 15.1194L13.1755 12.6672C13.3524 12.4754 13.5507 12.342 13.7704 12.2669C13.9902 12.1917 14.2183 12.1804 14.4551 12.2327L17.0306 12.7919C17.3218 12.8508 17.5561 12.9869 17.7337 13.2002C17.9112 13.4134 18 13.669 18 13.9667V16.8433C18 17.1738 17.8882 17.4491 17.6647 17.6695C17.4412 17.8898 17.1618 18 16.8265 18Z" fill="#343C88"/>
</svg>
