<svg xmlns="http://www.w3.org/2000/svg" width="21" height="20" viewBox="0 0 21 20">
  <defs>
    <style>
      .cls-1 {
        fill: #343c88;
        fill-rule: evenodd;
      }
    </style>
  </defs>
  <path id="star" class="cls-1" d="M20.282,7.179l-6.326-.918L11.12,0.539A0.718,0.718,0,0,0,10.5.023a0.717,0.717,0,0,0-.617.516L7.05,6.261l-6.326.918a0.655,0.655,0,0,0-.706.579,0.957,0.957,0,0,0,.315.6L4.92,12.813,3.837,19.1a2.011,2.011,0,0,0-.025.252,0.74,0.74,0,0,0,.132.447,0.459,0.459,0,0,0,.4.182,1.073,1.073,0,0,0,.5-0.151L10.5,16.863l5.658,2.968a1.021,1.021,0,0,0,.5.151,0.446,0.446,0,0,0,.384-0.182,0.74,0.74,0,0,0,.132-0.447,1.93,1.93,0,0,0-.013-0.252l-1.084-6.288L20.66,8.361a0.909,0.909,0,0,0,.328-0.6,0.655,0.655,0,0,0-.706-0.578h0Z"/>
</svg>
