<svg xmlns="http://www.w3.org/2000/svg" width="21" height="24" viewBox="0 0 21 24">
  <defs>
    <style>
      .cls-1 {
        fill-rule: evenodd;
      }
    </style>
  </defs>
  <path id="trash" class="cls-1" d="M19.874,5.935H18.692V21.7A2.279,2.279,0,0,1,16.44,24H4.532A2.279,2.279,0,0,1,2.28,21.7V5.935H1.126A1.139,1.139,0,0,1,0,4.783V4.754A1.139,1.139,0,0,1,1.126,3.6H4.673V2.3A2.279,2.279,0,0,1,6.925,0h7.15a2.279,2.279,0,0,1,2.252,2.3V3.6h3.547A1.139,1.139,0,0,1,21,4.754V4.783A1.139,1.139,0,0,1,19.874,5.935Zm-3.519,0H4.617V21.609H16.355V5.935ZM8.093,8.442H8.178a1.151,1.151,0,0,1,1.14,1.152v8.413a1.151,1.151,0,0,1-1.14,1.152H8.093a1.128,1.128,0,0,1-1.112-1.152V9.594A1.128,1.128,0,0,1,8.093,8.442Zm4.715,0h0.085a1.14,1.14,0,0,1,1.126,1.152v8.413a1.14,1.14,0,0,1-1.126,1.152H12.808a1.139,1.139,0,0,1-1.126-1.152V9.594A1.139,1.139,0,0,1,12.808,8.442ZM6.981,2.391h7.009V3.6H6.981V2.391Z"/>
</svg>
