<svg width="18" height="18" viewBox="0 0 18 18" fill="none" xmlns="http://www.w3.org/2000/svg" xmlns:xlink="http://www.w3.org/1999/xlink">
<path fill-rule="evenodd" clip-rule="evenodd" d="M15.3775 2.61564C14.5455 1.78316 13.5569 1.12349 12.469 0.674538C11.3809 0.225703 10.2147 -0.00363098 9.03773 4.34651e-05C4.09825 4.34651e-05 0.0771557 4.00101 0.0751409 8.91967C0.0730075 10.4859 0.485807 12.0248 1.2717 13.3795L0 18L4.75116 16.7597C6.06624 17.4722 7.53847 17.8451 9.03417 17.8445H9.03773C13.9768 17.8445 17.9976 13.8432 18 8.92487C18.003 7.7519 17.7727 6.59005 17.3224 5.50691C16.8722 4.42365 16.211 3.44089 15.3775 2.61564ZM13.1235 10.7868C12.8997 10.6751 11.7977 10.1359 11.5935 10.0615C11.3894 9.98721 11.2388 9.94986 11.0897 10.1733C10.9407 10.3966 10.5112 10.8964 10.3805 11.0471C10.2499 11.1978 10.1193 11.2144 9.89557 11.1025C9.6718 10.9909 8.94978 10.7559 8.09433 9.99637C7.42861 9.40547 6.97942 8.67575 6.84882 8.45282C6.71821 8.22976 6.83483 8.10888 6.94683 7.99795C7.04769 7.89791 7.17071 7.73756 7.28282 7.60742C7.39483 7.47729 7.43228 7.38401 7.50659 7.23539C7.5809 7.08665 7.54392 6.95652 7.4881 6.84522C7.43228 6.73394 6.98428 5.63669 6.79785 5.19023C6.61581 4.7555 6.43139 4.81464 6.29403 4.80776C6.16343 4.80136 6.01279 4.79971 5.86452 4.79971C5.7511 4.80267 5.63957 4.82898 5.53693 4.87698C5.43418 4.92498 5.34245 4.9936 5.26743 5.07859C5.06215 5.30199 4.48354 5.84196 4.48354 6.93803C4.48354 8.03409 5.2871 9.09484 5.39803 9.24346C5.50885 9.3922 6.97705 11.6433 9.22345 12.6088C9.64052 12.7876 10.0667 12.9441 10.5003 13.0781C11.0367 13.2477 11.5248 13.224 11.9105 13.1665C12.3408 13.1026 13.2364 12.6273 13.4224 12.1067C13.6085 11.5858 13.6089 11.1399 13.553 11.0471C13.4972 10.9542 13.3477 10.8981 13.1235 10.7868Z" fill="url(#pattern0)"/>
<path fill-rule="evenodd" clip-rule="evenodd" d="M15.3775 2.61564C14.5455 1.78316 13.5569 1.12349 12.469 0.674538C11.3809 0.225703 10.2147 -0.00363098 9.03773 4.34651e-05C4.09825 4.34651e-05 0.0771557 4.00101 0.0751409 8.91967C0.0730075 10.4859 0.485807 12.0248 1.2717 13.3795L0 18L4.75116 16.7597C6.06624 17.4722 7.53847 17.8451 9.03417 17.8445H9.03773C13.9768 17.8445 17.9976 13.8432 18 8.92487C18.003 7.7519 17.7727 6.59005 17.3224 5.50691C16.8722 4.42365 16.211 3.44089 15.3775 2.61564ZM13.1235 10.7868C12.8997 10.6751 11.7977 10.1359 11.5935 10.0615C11.3894 9.98721 11.2388 9.94986 11.0897 10.1733C10.9407 10.3966 10.5112 10.8964 10.3805 11.0471C10.2499 11.1978 10.1193 11.2144 9.89557 11.1025C9.6718 10.9909 8.94978 10.7559 8.09433 9.99637C7.42861 9.40547 6.97942 8.67575 6.84882 8.45282C6.71821 8.22976 6.83483 8.10888 6.94683 7.99795C7.04769 7.89791 7.17071 7.73756 7.28282 7.60742C7.39483 7.47729 7.43228 7.38401 7.50659 7.23539C7.5809 7.08665 7.54392 6.95652 7.4881 6.84522C7.43228 6.73394 6.98428 5.63669 6.79785 5.19023C6.61581 4.7555 6.43139 4.81464 6.29403 4.80776C6.16343 4.80136 6.01279 4.79971 5.86452 4.79971C5.7511 4.80267 5.63957 4.82898 5.53693 4.87698C5.43418 4.92498 5.34245 4.9936 5.26743 5.07859C5.06215 5.30199 4.48354 5.84196 4.48354 6.93803C4.48354 8.03409 5.2871 9.09484 5.39803 9.24346C5.50885 9.3922 6.97705 11.6433 9.22345 12.6088C9.64052 12.7876 10.0667 12.9441 10.5003 13.0781C11.0367 13.2477 11.5248 13.224 11.9105 13.1665C12.3408 13.1026 13.2364 12.6273 13.4224 12.1067C13.6085 11.5858 13.6089 11.1399 13.553 11.0471C13.4972 10.9542 13.3477 10.8981 13.1235 10.7868Z" fill="#343C88"/>
</svg>
