<svg xmlns="http://www.w3.org/2000/svg" width="19.969" height="20" viewBox="0 0 19.969 20">
  <defs>
    <style>
      .cls-1 {
        fill: #999;
        fill-rule: evenodd;
      }
    </style>
  </defs>
  <path id="phone" class="cls-1" d="M2.748,0H4.4C7.9,0,8,.87,9.008,3.333a4.649,4.649,0,0,1,.669,2.854,3.265,3.265,0,0,1-.454,1.127c-0.282.408-1.128,0.93-1,1.655a9.6,9.6,0,0,0,2.246,2.59c0.911,0.7,1.661-.377,2.222-0.767a3.28,3.28,0,0,1,1-.432,3.013,3.013,0,0,1,1.41.024c0.936,0.261,3.528,1.257,4.038,1.871a3.707,3.707,0,0,1,.741,1.319,7.03,7.03,0,0,1,.1,1.8c0,1.848-.018,3.158-1.027,3.957-1.563,1.236-5.168.482-6.929-.12A17.039,17.039,0,0,1,1.075,8.777C0.52,7.354-.57,3.144.406,1.487A3.061,3.061,0,0,1,2.1.12Zm0,2.014C1.971,2.427,1.9,3.143,2.1,4.317a20.157,20.157,0,0,0,.956,4.077,14.966,14.966,0,0,0,9.367,8.849,17.352,17.352,0,0,0,3.56.719,2.913,2.913,0,0,0,1.649-.144,1.036,1.036,0,0,0,.335-0.527,19.379,19.379,0,0,0-.048-3.309,1.147,1.147,0,0,0-.573-0.575c-0.507-.223-2.74-1.236-3.274-1.079a2.244,2.244,0,0,0-.717.528,3.216,3.216,0,0,1-2.844.887,5.328,5.328,0,0,1-2.533-1.87l-0.956-.935a3.3,3.3,0,0,1-.454-3.477A8.252,8.252,0,0,0,7.694,5.923,2.573,2.573,0,0,0,7.24,4.269C6.981,3.638,6.788,2.553,6.26,2.182,5.758,1.829,3.613,2.008,2.748,2.014Z" transform="translate(-0.031)"/>
</svg>
