<svg width="21" height="19" viewBox="0 0 21 19" fill="none" xmlns="http://www.w3.org/2000/svg">
<path d="M1.23493 16.9L2.57493 17.46V8.43L0.144933 14.29C-0.265067 15.31 0.224933 16.48 1.23493 16.9ZM20.7349 13.2L15.7749 1.23C15.4649 0.48 14.7349 0.02 13.9649 0C13.7049 0 13.4349 0.0400001 13.1749 0.15L5.80493 3.2C5.05493 3.51 4.59493 4.23 4.57493 5C4.56493 5.27 4.61493 5.54 4.72493 5.8L9.68493 17.77C9.99493 18.53 10.7349 18.99 11.5149 19C11.7749 19 12.0349 18.95 12.2849 18.85L19.6449 15.8C20.6649 15.38 21.1549 14.21 20.7349 13.2ZM6.58493 6C6.03493 6 5.58493 5.55 5.58493 5C5.58493 4.45 6.03493 4 6.58493 4C7.13493 4 7.58493 4.45 7.58493 5C7.58493 5.55 7.13493 6 6.58493 6ZM4.58493 17C4.58493 18.1 5.48493 19 6.58493 19H8.03493L4.58493 10.66V17Z" fill="#F55D3E"/>
</svg>
