<svg width="20" height="21" viewBox="0 0 20 21" fill="none" xmlns="http://www.w3.org/2000/svg">
<path d="M15.5 21C14.418 21.0125 13.3924 20.518 12.7282 19.6637C12.0641 18.8093 11.838 17.6935 12.117 16.648L5.857 13.07C4.77528 14.061 3.18968 14.2707 1.88749 13.5951C0.585292 12.9194 -0.156126 11.5022 0.0313673 10.0472C0.218861 8.59214 1.29533 7.4092 2.72628 7.0857C4.15722 6.76221 5.63786 7.36708 6.433 8.59996L12.116 5.35096C12.0425 5.07314 12.0035 4.78732 12 4.49996C11.9857 2.82667 13.1478 1.3731 14.7832 1.01878C16.4186 0.664462 18.0781 1.5067 18.7576 3.03588C19.4371 4.56505 18.95 6.36119 17.591 7.33747C16.2319 8.31375 14.3743 8.20205 13.142 7.06996L6.991 10.585C6.98491 10.8443 6.94866 11.102 6.883 11.353L13.142 14.93C14.2943 13.8725 16.0088 13.7093 17.3399 14.5303C18.671 15.3513 19.2946 16.9567 18.8668 18.461C18.439 19.9653 17.0639 21.0023 15.5 21ZM15.5 16C14.6716 16 14 16.6715 14 17.5C14 18.3284 14.6716 19 15.5 19C16.3284 19 17 18.3284 17 17.5C17 16.6715 16.3284 16 15.5 16ZM3.5 8.99996C2.67157 8.99996 2 9.67153 2 10.5C2 11.3284 2.67157 12 3.5 12C4.32843 12 5 11.3284 5 10.5C5 9.67153 4.32843 8.99996 3.5 8.99996ZM15.5 2.99996C14.6716 2.99996 14 3.67153 14 4.49996C14 5.32839 14.6716 5.99996 15.5 5.99996C16.3284 5.99996 17 5.32839 17 4.49996C17 3.67153 16.3284 2.99996 15.5 2.99996Z" fill="#2E3A59"/>
</svg>
