<svg width="24" height="24" viewBox="0 0 24 24" fill="none" xmlns="http://www.w3.org/2000/svg">
<path d="M15.5765 6.38513H8.42342C7.28168 6.38513 6.35278 7.31403 6.35278 8.45577V15.6089C6.35278 16.7506 7.28168 17.6798 8.42342 17.6798H15.5765C16.7183 17.6798 17.6474 16.7509 17.6474 15.6089V8.45577C17.6474 7.31403 16.7185 6.38513 15.5765 6.38513ZM12 15.7506C9.94992 15.7506 8.28197 14.0826 8.28197 12.0323C8.28197 9.98227 9.94992 8.31432 12 8.31432C14.0503 8.31432 15.7182 9.98227 15.7182 12.0323C15.7182 14.0824 14.05 15.7506 12 15.7506ZM15.8378 9.08305C15.3524 9.08305 14.9578 8.68839 14.9578 8.20335C14.9578 7.71832 15.3524 7.32366 15.8378 7.32366C16.3228 7.32366 16.7175 7.71832 16.7175 8.20335C16.7175 8.68839 16.3228 9.08305 15.8378 9.08305Z" fill="white"/>
<path d="M12 9.8855C10.8166 9.8855 9.85291 10.8486 9.85291 12.0321C9.85291 13.2161 10.8166 14.1794 12 14.1794C13.184 14.1794 14.1469 13.2161 14.1469 12.0321C14.1469 10.8489 13.1837 9.8855 12 9.8855Z" fill="white"/>
<path d="M12 0C5.37285 0 0 5.37285 0 12C0 18.6272 5.37285 24 12 24C18.6272 24 24 18.6272 24 12C24 5.37285 18.6272 0 12 0ZM19.2183 15.6089C19.2183 17.6172 17.5849 19.2507 15.5766 19.2507H8.42345C6.41538 19.2507 4.78166 17.6172 4.78166 15.6089V8.4558C4.78166 6.44774 6.41538 4.81401 8.42345 4.81401H15.5766C17.5849 4.81401 19.2183 6.44774 19.2183 8.4558V15.6089Z" fill="white"/>
</svg>
