<svg xmlns="http://www.w3.org/2000/svg" width="20" height="16" viewBox="0 0 20 16">
  <defs>
    <style>
      .cls-1 {
        fill: #f55d3e;
        fill-rule: evenodd;
      }
    </style>
  </defs>
  <path id="mail" class="cls-1" d="M17.644,16C19.52,16,20,15.049,20,13.542V2.072C20,0.718,19.207,0,17.644,0H1.971A1.959,1.959,0,0,0,0,2.12V13.976A1.908,1.908,0,0,0,2.019,16H17.644ZM1.971,3.952V14.024H18.029V4.048S12.084,8.8,11.25,9.446s-1.051.7-1.923,0.048C8.638,8.977,1.971,3.952,1.971,3.952ZM2.644,1.976l7.6,5.735,7.211-5.735H2.644Z"/>
</svg>
