<svg width="16" height="16" viewBox="0 0 16 16" fill="none" xmlns="http://www.w3.org/2000/svg">
<path d="M2.2253 0.81096C1.83477 0.420435 1.20161 0.420435 0.811082 0.81096C0.420557 1.20148 0.420557 1.83465 0.811082 2.22517L6.58582 7.99991L0.811141 13.7746C0.420617 14.1651 0.420617 14.7983 0.811141 15.1888C1.20167 15.5793 1.83483 15.5793 2.22535 15.1888L8.00003 9.41412L13.7747 15.1888C14.1652 15.5793 14.7984 15.5793 15.1889 15.1888C15.5794 14.7983 15.5794 14.1651 15.1889 13.7746L9.41424 7.99991L15.189 2.22517C15.5795 1.83465 15.5795 1.20148 15.189 0.81096C14.7985 0.420435 14.1653 0.420435 13.7748 0.81096L8.00003 6.58569L2.2253 0.81096Z" fill="white"/>
</svg>
