<svg xmlns="http://www.w3.org/2000/svg" width="77" height="44" viewBox="0 0 77 44"><defs><style>.cls-1 { fill: #ffffff; fill-rule: evenodd; }</style></defs><path class="cls-1" d="M0.024,0H8.85a25.246,25.246,0,0,1,4.8.144,9.33,9.33,0,0,1,5.329,3.025,10.75,10.75,0,0,1,2.267,4.657,9.442,9.442,0,0,1-2.291,7.993,4.786,4.786,0,0,1-1.5,1.368l0.048,0.024c0.458,0.318,1.057.456,1.519,0.744a8.151,8.151,0,0,1,3.111,3.6,14.363,14.363,0,0,1,.82,2.688c1.254,5.663-1.616,9.086-4.944,11.018-2,1.163-4.75,1.2-7.982,1.2H0.024V30.15H7.6a15.7,15.7,0,0,0,4-.192,4.471,4.471,0,0,0,2.387-1.8,4.092,4.092,0,0,0,.82-2.9,4.626,4.626,0,0,0-3.135-4.009,14.447,14.447,0,0,0-4-.216H0.024V14.379H7.018a14.614,14.614,0,0,0,3.593-.144,4.159,4.159,0,0,0,2.194-1.56,3.766,3.766,0,0,0,.844-2.785,4.249,4.249,0,0,0-2.942-3.721A14.5,14.5,0,0,0,7.042,6H0.024V0ZM24.742,0H44.565V6.649H24.742V0ZM48.351,0h7.066s9.622,16.4,14.421,24.581h0.024V0h7.066V36.655H69.862L55.465,13.01H55.441V36.463h-7.09V0ZM25.442,13.947L43.7,13.971V20.62H25.442V13.947Zm-0.7,15.867H44.565v6.649H24.742V29.813ZM0.015,38.719c1.063-.023,2.544-0.148,3.159.312a1.273,1.273,0,0,1-.193,2.112l0.024,0.048a1.4,1.4,0,0,1,.555,2.256c-0.566.672-2.314,0.5-3.545,0.48V38.719Zm13.022,0v0.744l-0.651-.024q0.012-.36.024-0.72h0.627Zm21.785,0.624H31.784v1.584H34.63v0.624H31.784V43.3l3.159,0.024-0.024.6L31.06,43.9q0.012-2.592.024-5.185l3.738,0.024v0.6ZM55.2,43.928H54.476L51.8,39.919q-0.012,2-.024,4.009L51.1,43.9q0.012-2.592.024-5.185a2.123,2.123,0,0,1,.748.048l2.653,3.985q0.012-2.016.024-4.033L55.2,38.743v5.185Zm19.34-5.209v2.953l1.5-1.512h0.82l-1.423,1.392L77,43.9v0.024a1.782,1.782,0,0,1-.8-0.048l-1.23-1.872-0.434.456v1.464H73.889q0.012-2.6.024-5.209H74.54Zm-26.358,1.44h0.627v0.5H48.182a11,11,0,0,0,.072,2.592,0.589,0.589,0,0,0,.555.1l0.072,0.576H48.809c-1.735.525-1.3-1.918-1.278-3.265H47.073v-0.5h0.458V39.223l0.651-.36v1.3Zm12.829,0h0.651v0.5H61.012c-0.01.526-.1,2.519,0.169,2.664a0.966,0.966,0,0,0,.482.024l0.072,0.576a1.785,1.785,0,0,1-1.061-.072c-0.463-.314-0.3-2.362-0.289-3.193H59.9v-0.5h0.482a2.912,2.912,0,0,1,.048-0.984l0.579-.312v1.3Zm-60.3-.816V40.9c0.889,0.023,2.108.17,2.267-.552C3.249,39.13,1.7,39.319.715,39.343ZM9.179,42.7c0.045,0.948,1.84,1.115,1.809.072-0.441-.782-2.7-0.291-2.339-1.824,0.2-.874,1.711-1.155,2.484-0.576a1.35,1.35,0,0,1,.386.768l-0.651.1c-0.04-.95-1.765-0.7-1.592-0.12,0.168,0.869,2.67.316,2.387,1.824-0.2,1.048-1.869,1.422-2.725.7a1.753,1.753,0,0,1-.41-0.84l0.024-.024Zm7.862,1.224L16.39,43.9c0.018-1.11.4-3.494-.941-3.265-1.022.176-.82,2.021-0.82,3.289H14V40.159h0.579v0.456a1.423,1.423,0,0,1,.627-0.456,1.838,1.838,0,0,1,.94-0.024C17.389,40.463,17.062,42.4,17.041,43.928Zm4.2-1.7H18.464A1.136,1.136,0,0,0,20.007,43.4a1.86,1.86,0,0,0,.579-0.7l0.651,0.1c-0.884,2.387-4.386.957-3.28-1.7a1.786,1.786,0,0,1,2.412-.84A1.962,1.962,0,0,1,21.237,42.224Zm1.712-2.136c1.129-.025,1.539.22,1.809,1.056l-0.651.1a0.883,0.883,0,0,0-1.616-.192c0.153,1,2.7.324,2.387,1.944-0.176.914-1.654,1.366-2.556,0.768a1.575,1.575,0,0,1-.555-0.936l0.024-.048,0.627-.048c0.073,0.94,1.833,1.075,1.809.048-0.413-.543-1.385-0.427-1.953-0.816a1.046,1.046,0,0,1,0-1.608A3.741,3.741,0,0,1,22.949,40.087Zm3.617,0c0.99-.026,1.7.19,1.784,1.056l-0.627.1c-0.143-.8-1.624-0.9-1.616-0.072,0.457,0.815,2.905.35,2.339,1.992-0.433,1.258-2.92,1.124-3.063-.36l0.024-.024,0.6-.072c0.161,1.387,2.381.6,1.736-.048-0.3-.428-1.324-0.375-1.785-0.648a1.046,1.046,0,0,1-.024-1.7Zm16.069,2.136h-2.8c0.1,0.787.768,1.675,1.688,1.1,0.309-.192.426-0.981,1.085-0.5-0.851,2.318-4.325.977-3.28-1.68a1.786,1.786,0,0,1,2.508-.84A2.014,2.014,0,0,1,42.636,42.224Zm3.183,1.7s0.415-3.559-.965-3.289c-1.327.26-.82,3.289-0.82,3.289L43.408,43.9V40.159h0.579v0.5a1.6,1.6,0,0,1,2.1-.312,1.234,1.234,0,0,1,.338.6,28.82,28.82,0,0,1,.024,2.977H45.819Zm13.673-1.7H56.7v0.024c0.2,0.737.679,1.7,1.688,1.08,0.314-.194.42-0.978,1.085-0.5-0.864,2.331-4.382.951-3.28-1.7C56.926,39.344,59.54,39.813,59.492,42.224Zm9.188-2.136A1.983,1.983,0,0,1,69.259,44c-1.581.289-2.369-1.318-1.929-2.736A1.843,1.843,0,0,1,68.68,40.087Zm2.8,0.072h0.6v0.5l0.048-.024a0.885,0.885,0,0,1,1.4-.336l-0.217.576c-1.759-.821-0.918,1.937-1.206,3.049L71.478,43.9V40.159Zm-66.711,0H5.417s-0.317,3.1.6,3.289c1.5,0.3,1.133-3.289,1.133-3.289H7.8L7.781,43.928H7.226V43.4a2.325,2.325,0,0,1-.6.5,1.684,1.684,0,0,1-.94.048C4.4,43.615,4.766,40.159,4.766,40.159Zm7.62,0h0.651v3.769L12.387,43.9V40.159Zm23.015,0h0.7l1.013,2.977,0.024-.048L38.2,40.159H38.85v0.024l-1.423,3.745h-0.6Zm26.406,0h0.675v0.048l0.8,2.9H63.3l0.772-2.953,0.675,0.024,0.7,2.832,0.048-.024,0.844-2.832h0.6l-1.157,3.769H65.111l-0.724-2.856H64.364l-0.748,2.856-0.7-.024ZM20.562,41.672a1.037,1.037,0,1,0-2.074,0h2.074Zm19.325,0h2.074A1.037,1.037,0,1,0,39.887,41.672Zm16.857,0h2.074a1.689,1.689,0,0,0-.314-0.792A1.063,1.063,0,0,0,56.743,41.672ZM68.9,40.615a1.194,1.194,0,0,0-.965.936c-0.224.97,0.223,2.139,1.254,1.92C70.457,43.2,70.471,40.6,68.9,40.615Zm-68.182.912V43.3c1.092,0.025,2.787.238,2.484-1.1C3.011,41.368,1.745,41.505.715,41.528Z"/></svg>
