<svg width="425" height="488" viewBox="0 0 425 488" fill="none" xmlns="http://www.w3.org/2000/svg">
<g opacity="0.15">
<path d="M371.875 487.754L185.938 408.139L0 487.754V63.1417C0 33.9496 23.9062 10.0651 53.125 10.0651H239.062C222.328 32.3573 212.5 59.6917 212.5 89.6799C212.5 162.926 272 222.371 345.312 222.371C354.344 222.371 363.375 221.575 371.875 219.717V487.754Z" fill="white"/>
<path d="M403.057 81.4267L425 62.8499L405.752 30.712L377.842 39.8146C371.682 34.7989 364.753 30.8978 357.054 28.1113L351.279 0.246094H312.783L307.009 27.9255C299.309 30.712 292.38 34.6132 286.221 39.6289L258.311 30.5263L239.062 62.6641L261.005 81.2409C259.466 90.5293 259.466 95.3593 261.005 104.648L239.062 123.224L258.311 155.362L286.221 146.26C292.38 151.275 299.309 155.176 307.009 157.963L312.783 186.014H351.279L357.054 158.335C364.753 155.548 371.682 151.647 377.842 146.631L405.752 155.734L425 123.596L403.057 105.019C404.597 95.545 404.597 90.715 403.057 81.4267ZM332.031 130.284C310.858 130.284 293.535 113.564 293.535 93.13C293.535 72.6956 310.858 55.9764 332.031 55.9764C353.204 55.9764 370.528 72.6956 370.528 93.13C370.528 113.564 353.204 130.284 332.031 130.284Z" fill="white"/>
</g>
</svg>
