<svg xmlns="http://www.w3.org/2000/svg" xmlns:xlink="http://www.w3.org/1999/xlink"><symbol id="icon-arr-down" viewBox="0 0 12 8"><path d="M10.59.295L6 4.875 1.41.295 0 1.705l6 6 6-6-1.41-1.41z"/></symbol><symbol id="icon-menu-close" viewBox="0 0 16 16"><path d="M2.225.811A1 1 0 00.811 2.225L6.586 8 .81 13.775a1 1 0 101.414 1.414L8 9.414l5.775 5.775a1 1 0 001.414-1.414L9.414 8l5.775-5.775A1 1 0 0013.775.811L8 6.586 2.225.81z"/></symbol><symbol id="icon-menu-down" viewBox="0 0 10 6"><path d="M5.384 5.54a.5.5 0 01-.768 0L.683.82A.5.5 0 011.068 0h7.864a.5.5 0 01.385.82L5.384 5.54z"/></symbol><symbol id="icon-menu-open" viewBox="0 0 18 12"><path d="M0 12h18v-2H0v2zm0-5h18V5H0v2zm0-7v2h18V0H0z"/></symbol><symbol id="icon-soc-fb" viewBox="0 0 24 24"><path d="M24 12.073C24 5.405 18.627 0 12 0S0 5.405 0 12.073C0 18.1 4.388 23.094 10.125 24v-8.437H7.078v-3.49h3.047v-2.66c0-3.025 1.792-4.697 4.533-4.697 1.312 0 2.686.236 2.686.236v2.971H15.83c-1.491 0-1.956.93-1.956 1.887v2.263h3.328l-.532 3.49h-2.796V24C19.612 23.094 24 18.1 24 12.073z"/></symbol><symbol id="icon-soc-inst" viewBox="0 0 24 24"><path d="M15.576 6.385H8.424c-1.141 0-2.07.929-2.07 2.07v7.154c0 1.142.929 2.07 2.07 2.07h7.153c1.142 0 2.071-.928 2.071-2.07V8.456c0-1.142-.928-2.07-2.07-2.07zM12 15.751a3.722 3.722 0 01-3.718-3.719A3.722 3.722 0 0112 8.314a3.722 3.722 0 013.718 3.718A3.723 3.723 0 0112 15.751zm3.838-6.668a.88.88 0 010-1.76.88.88 0 010 1.76z"/><path d="M12 9.886a2.15 2.15 0 00-2.147 2.146A2.15 2.15 0 0012 14.18a2.15 2.15 0 002.147-2.147A2.15 2.15 0 0012 9.886z"/><path d="M12 0C5.373 0 0 5.373 0 12s5.373 12 12 12 12-5.373 12-12S18.627 0 12 0zm7.218 15.609a3.646 3.646 0 01-3.641 3.642H8.423a3.646 3.646 0 01-3.641-3.642V8.456a3.646 3.646 0 013.641-3.642h7.154a3.646 3.646 0 013.641 3.642v7.153z"/></symbol><symbol id="icon-soc-tlg" viewBox="0 0 24 24"><path fill-rule="evenodd" clip-rule="evenodd" d="M24 12c0 6.627-5.373 12-12 12S0 18.627 0 12 5.373 0 12 0s12 5.373 12 12zM12.43 8.859c-1.167.485-3.5 1.49-6.998 3.014-.568.226-.866.447-.893.663-.046.366.412.51 1.034.705.085.027.173.054.263.084.613.199 1.437.432 1.865.441.389.008.823-.152 1.302-.48 3.268-2.207 4.955-3.322 5.061-3.346.075-.017.179-.039.249.024.07.062.063.18.056.212-.046.193-1.84 1.862-2.77 2.726-.29.269-.495.46-.537.504-.094.097-.19.19-.282.279-.57.548-.996.96.024 1.632.49.323.882.59 1.273.856.427.291.853.581 1.405.943.14.092.274.187.405.28.497.355.944.673 1.496.623.32-.03.652-.331.82-1.23.397-2.126 1.179-6.73 1.36-8.628a2.123 2.123 0 00-.02-.472.506.506 0 00-.172-.325c-.143-.117-.365-.142-.465-.14-.451.008-1.143.249-4.476 1.635z"/></symbol><symbol id="icon-zoom" viewBox="0 0 20 20"><path fill-rule="evenodd" clip-rule="evenodd" d="M4.867 13.457A8.001 8.001 0 0116.843 2.893 8 8 0 016.278 14.87a.99.99 0 01-.042.045l-4.243 4.243A1 1 0 01.58 17.742L4.822 13.5c.014-.015.03-.029.045-.043zm2.076-9.15a6 6 0 108.485 8.486 6 6 0 00-8.485-8.486z" fill-opacity="0.38"/></symbol> <view id="icon-arr-down-view-dimgrey" viewBox="0 0 12 8"/><view id="icon-arr-down-view-white" viewBox="0 18 12 8"/><view id="icon-menu-close-view-dimgrey" viewBox="0 36 16 16"/><view id="icon-menu-close-view-white" viewBox="0 62 16 16"/><view id="icon-menu-down-view-dimgrey" viewBox="0 88 10 6"/><view id="icon-menu-down-view-white" viewBox="0 104 10 6"/><view id="icon-menu-open-view-dimgrey" viewBox="0 120 18 12"/><view id="icon-menu-open-view-white" viewBox="0 142 18 12"/><view id="icon-soc-fb-view-dimgrey" viewBox="0 164 24 24"/><view id="icon-soc-fb-view-white" viewBox="0 198 24 24"/><view id="icon-soc-inst-view-dimgrey" viewBox="0 232 24 24"/><view id="icon-soc-inst-view-white" viewBox="0 266 24 24"/><view id="icon-soc-tlg-view-dimgrey" viewBox="0 300 24 24"/><view id="icon-soc-tlg-view-white" viewBox="0 334 24 24"/><view id="icon-zoom-view-dimgrey" viewBox="0 368 20 20"/><view id="icon-zoom-view-white" viewBox="0 398 20 20"/> <use xlink:href="#icon-arr-down" x="0" y="0" width="12" height="8" style="fill:#696969"/><use xlink:href="#icon-arr-down" x="0" y="18" width="12" height="8" style="fill:#ffffff"/><use xlink:href="#icon-menu-close" x="0" y="36" width="16" height="16" style="fill:#696969"/><use xlink:href="#icon-menu-close" x="0" y="62" width="16" height="16" style="fill:#ffffff"/><use xlink:href="#icon-menu-down" x="0" y="88" width="10" height="6" style="fill:#696969"/><use xlink:href="#icon-menu-down" x="0" y="104" width="10" height="6" style="fill:#ffffff"/><use xlink:href="#icon-menu-open" x="0" y="120" width="18" height="12" style="fill:#696969"/><use xlink:href="#icon-menu-open" x="0" y="142" width="18" height="12" style="fill:#ffffff"/><use xlink:href="#icon-soc-fb" x="0" y="164" width="24" height="24" style="fill:#696969"/><use xlink:href="#icon-soc-fb" x="0" y="198" width="24" height="24" style="fill:#ffffff"/><use xlink:href="#icon-soc-inst" x="0" y="232" width="24" height="24" style="fill:#696969"/><use xlink:href="#icon-soc-inst" x="0" y="266" width="24" height="24" style="fill:#ffffff"/><use xlink:href="#icon-soc-tlg" x="0" y="300" width="24" height="24" style="fill:#696969"/><use xlink:href="#icon-soc-tlg" x="0" y="334" width="24" height="24" style="fill:#ffffff"/><use xlink:href="#icon-zoom" x="0" y="368" width="20" height="20" style="fill:#696969"/><use xlink:href="#icon-zoom" x="0" y="398" width="20" height="20" style="fill:#ffffff"/></svg>