<svg xmlns="http://www.w3.org/2000/svg" xmlns:xlink="http://www.w3.org/1999/xlink"><symbol id="icon-arr-left" viewBox="0 0 15.969 13.938"><path d="M15.107 5.973a1 1 0 01.853 1 .955.955 0 01-.853 1H3.369l4.407 4.4a.991.991 0 01-.1 1.275.975.975 0 01-1.288.111L.448 7.836a1.039 1.039 0 01-.1-1.625L6.384.191a1.071 1.071 0 011.341.136.86.86 0 01.1 1.2L3.369 5.973h11.738z" fill-rule="evenodd"/></symbol><symbol id="icon-arr-right" viewBox="0 0 16 14"><path d="M.862 8.027a1 1 0 01-.853-1 .955.955 0 01.853-1H12.6l-4.407-4.4a.991.991 0 01.1-1.275.975.975 0 011.288-.113l5.94 5.925a1.039 1.039 0 01.1 1.625l-6.036 6.02a1.071 1.071 0 01-1.337-.136.86.86 0 01-.1-1.2L12.6 8.027H.862z" fill-rule="evenodd"/></symbol><symbol id="icon-close" viewBox="0 0 14 14"><path data-name="Прямоугольник, скругл. углы 1" d="M8.485 6.88l5.228 5.228a.969.969 0 01-1.371 1.371L7.114 8.251l-5.32 5.32a.965.965 0 11-1.365-1.365l5.32-5.32L.52 1.657A.969.969 0 011.891.287L7.12 5.515 12.206.429a.965.965 0 111.365 1.365z" fill-rule="evenodd"/></symbol><symbol id="icon-down" viewBox="0 0 10 6"><path d="M5.012 3.61S7.591 1.026 8.274.335a.975.975 0 111.419 1.338L5.957 5.45a1.124 1.124 0 01-1.915 0L.283 1.65A.994.994 0 011.749.311z" fill-rule="evenodd"/></symbol><symbol id="icon-email" viewBox="0 0 20 16"><path d="M17.644 16C19.52 16 20 15.049 20 13.542V2.072C20 .718 19.207 0 17.644 0H1.971A1.959 1.959 0 000 2.12v11.856A1.908 1.908 0 002.019 16h15.625zM1.971 3.952v10.072h16.058V4.048S12.084 8.8 11.25 9.446s-1.051.7-1.923.048c-.689-.517-7.356-5.542-7.356-5.542zm.673-1.976l7.6 5.735 7.211-5.735H2.644z" fill-rule="evenodd"/></symbol><symbol id="icon-menu" viewBox="0 0 24 16"><path d="M0 0h24v2H0V0zm0 7h24v2H0V7zm0 7h24v2H0v-2z" fill-rule="evenodd"/></symbol><symbol id="icon-phone" viewBox="0 0 19.969 20"><path d="M2.717 0h1.652c3.5 0 3.6.87 4.608 3.333a4.649 4.649 0 01.669 2.854 3.265 3.265 0 01-.454 1.127c-.282.408-1.128.93-1 1.655a9.6 9.6 0 002.246 2.59c.911.7 1.661-.377 2.222-.767a3.28 3.28 0 011-.432 3.013 3.013 0 011.41.024c.936.261 3.528 1.257 4.038 1.871a3.707 3.707 0 01.741 1.319 7.03 7.03 0 01.1 1.8c0 1.848-.018 3.158-1.027 3.957-1.563 1.236-5.168.482-6.929-.12A17.039 17.039 0 011.044 8.777C.489 7.354-.601 3.144.375 1.487A3.061 3.061 0 012.069.12zm0 2.014c-.777.413-.848 1.129-.648 2.303a20.157 20.157 0 00.956 4.077 14.966 14.966 0 009.367 8.849 17.352 17.352 0 003.56.719 2.913 2.913 0 001.649-.144 1.036 1.036 0 00.335-.527 19.379 19.379 0 00-.048-3.309 1.147 1.147 0 00-.573-.575c-.507-.223-2.74-1.236-3.274-1.079a2.244 2.244 0 00-.717.528 3.216 3.216 0 01-2.844.887 5.328 5.328 0 01-2.533-1.87l-.956-.935a3.3 3.3 0 01-.454-3.477 8.252 8.252 0 001.126-1.538 2.573 2.573 0 00-.454-1.654c-.259-.631-.452-1.716-.98-2.087-.502-.353-2.647-.174-3.512-.168z" fill-rule="evenodd"/></symbol><symbol id="icon-side" viewBox="0 0 5 21"><circle cx="2.5" cy="2.5" r="2.5"/><circle cx="2.5" cy="10.5" r="2.5"/><circle cx="2.5" cy="18.5" r="2.5"/></symbol><symbol id="icon-soc-fb" viewBox="0 0 32 32"><g clip-path="url(#clip0_1702_7136)"><path d="M32 16c0-8.837-7.163-16-16-16S0 7.163 0 16c0 7.986 5.85 14.605 13.5 15.806V20.625H9.437V16H13.5v-3.525c0-4.01 2.389-6.225 6.043-6.225 1.75 0 3.582.313 3.582.313V10.5h-2.017c-1.988 0-2.608 1.233-2.608 2.5v3h4.438l-.71 4.625H18.5v11.18C26.15 30.606 32 23.986 32 16z"/></g><defs><clipPath id="clip0_1702_7136"><path d="M0 0h32v32H0z"/></clipPath></defs></symbol><symbol id="icon-soc-inst" viewBox="0 0 32 32"><g clip-path="url(#clip0_1702_7138)"><path d="M16 2.881c4.275 0 4.781.019 6.462.094 1.563.069 2.407.331 2.97.55a4.949 4.949 0 011.837 1.194 4.921 4.921 0 011.194 1.837c.218.563.48 1.413.55 2.969.074 1.688.093 2.194.093 6.463 0 4.274-.019 4.78-.094 6.462-.068 1.563-.33 2.406-.55 2.969a4.95 4.95 0 01-1.193 1.837 4.922 4.922 0 01-1.838 1.194c-.562.219-1.412.481-2.969.55-1.687.075-2.193.094-6.462.094-4.275 0-4.781-.019-6.463-.094-1.562-.069-2.406-.331-2.968-.55a4.949 4.949 0 01-1.838-1.194 4.922 4.922 0 01-1.193-1.837c-.22-.563-.482-1.413-.55-2.969-.075-1.688-.094-2.194-.094-6.462 0-4.275.018-4.782.093-6.463.07-1.563.332-2.406.55-2.969A4.948 4.948 0 014.732 4.72 4.921 4.921 0 016.57 3.525c.562-.219 1.412-.481 2.968-.55C11.22 2.9 11.726 2.881 16 2.881zM16 0c-4.344 0-4.887.019-6.594.094-1.7.075-2.869.35-3.881.744-1.056.412-1.95.956-2.838 1.85-.893.887-1.437 1.78-1.85 2.83C.444 6.539.17 7.7.094 9.4.019 11.113 0 11.656 0 16c0 4.344.019 4.887.094 6.594.075 1.7.35 2.868.744 3.881.412 1.056.956 1.95 1.85 2.837a7.822 7.822 0 002.83 1.844c1.02.394 2.182.669 3.882.744 1.706.075 2.25.094 6.594.094 4.343 0 4.887-.019 6.593-.094 1.7-.075 2.87-.35 3.882-.744a7.822 7.822 0 002.831-1.843 7.822 7.822 0 001.844-2.832c.394-1.019.669-2.181.744-3.881.074-1.706.093-2.25.093-6.594s-.019-4.887-.094-6.594c-.075-1.7-.35-2.868-.743-3.88a7.494 7.494 0 00-1.831-2.845A7.82 7.82 0 0026.48.845C25.462.45 24.3.175 22.6.1 20.887.019 20.344 0 16 0z"/><path d="M16 7.781A8.22 8.22 0 007.781 16 8.22 8.22 0 0016 24.219 8.22 8.22 0 0024.219 16 8.22 8.22 0 0016 7.781zm0 13.55a5.332 5.332 0 11.001-10.664A5.332 5.332 0 0116 21.331zM26.462 7.456a1.92 1.92 0 11-3.838 0 1.92 1.92 0 013.838 0z"/></g><defs><clipPath id="clip0_1702_7138"><path d="M0 0h32v32H0z"/></clipPath></defs></symbol><symbol id="icon-soc-tgm" viewBox="0 0 32 32"><g clip-path="url(#clip0_1702_7143)"><path fill-rule="evenodd" clip-rule="evenodd" d="M32 16c0 8.837-7.163 16-16 16S0 24.837 0 16 7.163 0 16 0s16 7.163 16 16zm-15.427-4.188c-1.556.647-4.666 1.987-9.33 4.02-.758.3-1.155.595-1.19.883-.062.487.548.679 1.378.94l.35.111c.817.266 1.916.576 2.487.589.519.01 1.097-.203 1.736-.641 4.357-2.942 6.607-4.429 6.748-4.461.1-.023.238-.051.332.032.093.083.084.24.074.283-.06.258-2.454 2.483-3.693 3.634-.386.36-.66.614-.716.672-.125.13-.253.254-.376.372-.759.732-1.328 1.28.032 2.176.653.43 1.176.787 1.698 1.142.57.388 1.137.775 1.872 1.257.188.123.367.25.54.374.664.473 1.26.898 1.995.83.428-.04.87-.441 1.094-1.64.53-2.834 1.572-8.974 1.812-11.504a2.822 2.822 0 00-.026-.63.674.674 0 00-.228-.433c-.192-.155-.488-.188-.62-.186-.602.01-1.525.332-5.969 2.18z"/></g><defs><clipPath id="clip0_1702_7143"><path d="M0 0h32v32H0z"/></clipPath></defs></symbol><symbol id="icon-star-fill" viewBox="0 0 21 20"><path d="M20.282 7.179l-6.326-.918L11.12.539a.718.718 0 00-.62-.516.717.717 0 00-.617.516L7.05 6.261l-6.326.918a.655.655 0 00-.706.579.957.957 0 00.315.6l4.587 4.455L3.837 19.1a2.011 2.011 0 00-.025.252.74.74 0 00.132.447.459.459 0 00.4.182 1.073 1.073 0 00.5-.151l5.656-2.967 5.658 2.968a1.021 1.021 0 00.5.151.446.446 0 00.384-.182.74.74 0 00.132-.447 1.93 1.93 0 00-.013-.252l-1.084-6.288 4.583-4.452a.909.909 0 00.328-.6.655.655 0 00-.706-.578z" fill-rule="evenodd"/></symbol><symbol id="icon-star" viewBox="0 0 21 20"><path d="M20.282 7.179l-6.326-.918L11.12.539a.718.718 0 00-.62-.516.717.717 0 00-.617.516L7.05 6.261l-6.326.918a.655.655 0 00-.706.579.957.957 0 00.315.6l4.587 4.455L3.837 19.1a2.011 2.011 0 00-.025.252.74.74 0 00.132.447.459.459 0 00.4.182 1.073 1.073 0 00.5-.151l5.656-2.967 5.658 2.968a1.021 1.021 0 00.5.151.446.446 0 00.384-.182.74.74 0 00.132-.447 1.93 1.93 0 00-.013-.252l-1.084-6.288 4.583-4.452a.909.909 0 00.328-.6.655.655 0 00-.706-.578zM6.891 12.255L3.2 8.736l5.068-.719 2.256-4.645 2.211 4.645 5.011.745-3.633 3.494.816 4.961-4.429-2.342-4.584 2.469z" fill-rule="evenodd"/></symbol><symbol id="icon-trash" viewBox="0 0 21 24"><path d="M19.874 5.935h-1.182V21.7A2.279 2.279 0 0116.44 24H4.532a2.279 2.279 0 01-2.252-2.3V5.935H1.126A1.139 1.139 0 010 4.783v-.029A1.139 1.139 0 011.126 3.6h3.547V2.3A2.279 2.279 0 016.925 0h7.15a2.279 2.279 0 012.252 2.3v1.3h3.547A1.139 1.139 0 0121 4.754v.029a1.139 1.139 0 01-1.126 1.152zm-3.519 0H4.617v15.674h11.738V5.935zM8.093 8.442h.085a1.151 1.151 0 011.14 1.152v8.413a1.151 1.151 0 01-1.14 1.152h-.085a1.128 1.128 0 01-1.112-1.152V9.594a1.128 1.128 0 011.112-1.152zm4.715 0h.085a1.14 1.14 0 011.126 1.152v8.413a1.14 1.14 0 01-1.126 1.152h-.085a1.139 1.139 0 01-1.126-1.152V9.594a1.139 1.139 0 011.126-1.152zM6.981 2.391h7.009V3.6H6.981V2.391z" fill-rule="evenodd"/></symbol><symbol id="icon-user" viewBox="0 0 18 20"><path d="M8.39 13.013c3.892-.063 6.954 1.04 8.582 3.265.415.568 1.5 2.419.765 3.385a1.072 1.072 0 01-1.578-.024 3.073 3.073 0 01-.239-1.1 2.986 2.986 0 00-.454-.984 7 7 0 00-4.35-2.355l-1.888-.192-1.554.1c-2.3.406-4.3.989-5.307 2.665-.289.479-.236 1.453-.55 1.873a1.072 1.072 0 01-1.578.024c-.647-.86.2-2.559.574-3.121a8.34 8.34 0 015.116-3.193l1.771-.295zm.685-13A6.012 6.012 0 113.09 6.026 6 6 0 019.075.015zm-.039 2.076a3.938 3.938 0 11-3.92 3.938 3.929 3.929 0 013.92-3.938z" fill-rule="evenodd"/></symbol><symbol id="icon-zoom" viewBox="0 0 20 20"><path d="M8 2a6 6 0 100 12A6 6 0 008 2zM0 8a8 8 0 1114.32 4.906l5.387 5.387a1 1 0 01-1.414 1.414l-5.387-5.387A8 8 0 010 8z"/></symbol> <view id="icon-arr-left-view-orange" viewBox="0 0 15.969 13.938"/><view id="icon-arr-left-view-white" viewBox="0 23.938000000000002 15.969 13.938"/><view id="icon-arr-left-view-black" viewBox="0 47.876000000000005 15.969 13.938"/><view id="icon-arr-left-view-blue" viewBox="0 71.81400000000001 15.969 13.938"/><view id="icon-arr-right-view-orange" viewBox="0 95.75200000000001 16 14"/><view id="icon-arr-right-view-white" viewBox="0 119.75200000000001 16 14"/><view id="icon-arr-right-view-black" viewBox="0 143.752 16 14"/><view id="icon-arr-right-view-blue" viewBox="0 167.752 16 14"/><view id="icon-close-view-orange" viewBox="0 191.752 14 14"/><view id="icon-close-view-white" viewBox="0 215.752 14 14"/><view id="icon-close-view-black" viewBox="0 239.752 14 14"/><view id="icon-close-view-blue" viewBox="0 263.752 14 14"/><view id="icon-down-view-orange" viewBox="0 287.752 10 6"/><view id="icon-down-view-white" viewBox="0 303.752 10 6"/><view id="icon-down-view-black" viewBox="0 319.752 10 6"/><view id="icon-down-view-blue" viewBox="0 335.752 10 6"/><view id="icon-email-view-orange" viewBox="0 351.752 20 16"/><view id="icon-email-view-white" viewBox="0 377.752 20 16"/><view id="icon-email-view-black" viewBox="0 403.752 20 16"/><view id="icon-email-view-blue" viewBox="0 429.752 20 16"/><view id="icon-menu-view-orange" viewBox="0 455.752 24 16"/><view id="icon-menu-view-white" viewBox="0 481.752 24 16"/><view id="icon-menu-view-black" viewBox="0 507.752 24 16"/><view id="icon-menu-view-blue" viewBox="0 533.752 24 16"/><view id="icon-phone-view-orange" viewBox="0 559.752 19.969 20"/><view id="icon-phone-view-white" viewBox="0 589.752 19.969 20"/><view id="icon-phone-view-black" viewBox="0 619.752 19.969 20"/><view id="icon-phone-view-blue" viewBox="0 649.752 19.969 20"/><view id="icon-side-view-orange" viewBox="0 679.752 5 21"/><view id="icon-side-view-white" viewBox="0 710.752 5 21"/><view id="icon-side-view-black" viewBox="0 741.752 5 21"/><view id="icon-side-view-blue" viewBox="0 772.752 5 21"/><view id="icon-soc-fb-view-orange" viewBox="0 803.752 32 32"/><view id="icon-soc-fb-view-white" viewBox="0 845.752 32 32"/><view id="icon-soc-fb-view-black" viewBox="0 887.752 32 32"/><view id="icon-soc-fb-view-blue" viewBox="0 929.752 32 32"/><view id="icon-soc-inst-view-orange" viewBox="0 971.752 32 32"/><view id="icon-soc-inst-view-white" viewBox="0 1013.752 32 32"/><view id="icon-soc-inst-view-black" viewBox="0 1055.752 32 32"/><view id="icon-soc-inst-view-blue" viewBox="0 1097.752 32 32"/><view id="icon-soc-tgm-view-orange" viewBox="0 1139.752 32 32"/><view id="icon-soc-tgm-view-white" viewBox="0 1181.752 32 32"/><view id="icon-soc-tgm-view-black" viewBox="0 1223.752 32 32"/><view id="icon-soc-tgm-view-blue" viewBox="0 1265.752 32 32"/><view id="icon-star-fill-view-orange" viewBox="0 1307.752 21 20"/><view id="icon-star-fill-view-white" viewBox="0 1337.752 21 20"/><view id="icon-star-fill-view-black" viewBox="0 1367.752 21 20"/><view id="icon-star-fill-view-blue" viewBox="0 1397.752 21 20"/><view id="icon-star-view-orange" viewBox="0 1427.752 21 20"/><view id="icon-star-view-white" viewBox="0 1457.752 21 20"/><view id="icon-star-view-black" viewBox="0 1487.752 21 20"/><view id="icon-star-view-blue" viewBox="0 1517.752 21 20"/><view id="icon-trash-view-orange" viewBox="0 1547.752 21 24"/><view id="icon-trash-view-white" viewBox="0 1581.752 21 24"/><view id="icon-trash-view-black" viewBox="0 1615.752 21 24"/><view id="icon-trash-view-blue" viewBox="0 1649.752 21 24"/><view id="icon-user-view-orange" viewBox="0 1683.752 18 20"/><view id="icon-user-view-white" viewBox="0 1713.752 18 20"/><view id="icon-user-view-black" viewBox="0 1743.752 18 20"/><view id="icon-user-view-blue" viewBox="0 1773.752 18 20"/><view id="icon-zoom-view-orange" viewBox="0 1803.752 20 20"/><view id="icon-zoom-view-white" viewBox="0 1833.752 20 20"/><view id="icon-zoom-view-black" viewBox="0 1863.752 20 20"/><view id="icon-zoom-view-blue" viewBox="0 1893.752 20 20"/> <use xlink:href="#icon-arr-left" x="0" y="0" width="15.969" height="13.938" style="fill:#F55D3E"/><use xlink:href="#icon-arr-left" x="0" y="23.938000000000002" width="15.969" height="13.938" style="fill:#ffffff"/><use xlink:href="#icon-arr-left" x="0" y="47.876000000000005" width="15.969" height="13.938" style="fill:#000000"/><use xlink:href="#icon-arr-left" x="0" y="71.81400000000001" width="15.969" height="13.938" style="fill:#343C88"/><use xlink:href="#icon-arr-right" x="0" y="95.75200000000001" width="16" height="14" style="fill:#F55D3E"/><use xlink:href="#icon-arr-right" x="0" y="119.75200000000001" width="16" height="14" style="fill:#ffffff"/><use xlink:href="#icon-arr-right" x="0" y="143.752" width="16" height="14" style="fill:#000000"/><use xlink:href="#icon-arr-right" x="0" y="167.752" width="16" height="14" style="fill:#343C88"/><use xlink:href="#icon-close" x="0" y="191.752" width="14" height="14" style="fill:#F55D3E"/><use xlink:href="#icon-close" x="0" y="215.752" width="14" height="14" style="fill:#ffffff"/><use xlink:href="#icon-close" x="0" y="239.752" width="14" height="14" style="fill:#000000"/><use xlink:href="#icon-close" x="0" y="263.752" width="14" height="14" style="fill:#343C88"/><use xlink:href="#icon-down" x="0" y="287.752" width="10" height="6" style="fill:#F55D3E"/><use xlink:href="#icon-down" x="0" y="303.752" width="10" height="6" style="fill:#ffffff"/><use xlink:href="#icon-down" x="0" y="319.752" width="10" height="6" style="fill:#000000"/><use xlink:href="#icon-down" x="0" y="335.752" width="10" height="6" style="fill:#343C88"/><use xlink:href="#icon-email" x="0" y="351.752" width="20" height="16" style="fill:#F55D3E"/><use xlink:href="#icon-email" x="0" y="377.752" width="20" height="16" style="fill:#ffffff"/><use xlink:href="#icon-email" x="0" y="403.752" width="20" height="16" style="fill:#000000"/><use xlink:href="#icon-email" x="0" y="429.752" width="20" height="16" style="fill:#343C88"/><use xlink:href="#icon-menu" x="0" y="455.752" width="24" height="16" style="fill:#F55D3E"/><use xlink:href="#icon-menu" x="0" y="481.752" width="24" height="16" style="fill:#ffffff"/><use xlink:href="#icon-menu" x="0" y="507.752" width="24" height="16" style="fill:#000000"/><use xlink:href="#icon-menu" x="0" y="533.752" width="24" height="16" style="fill:#343C88"/><use xlink:href="#icon-phone" x="0" y="559.752" width="19.969" height="20" style="fill:#F55D3E"/><use xlink:href="#icon-phone" x="0" y="589.752" width="19.969" height="20" style="fill:#ffffff"/><use xlink:href="#icon-phone" x="0" y="619.752" width="19.969" height="20" style="fill:#000000"/><use xlink:href="#icon-phone" x="0" y="649.752" width="19.969" height="20" style="fill:#343C88"/><use xlink:href="#icon-side" x="0" y="679.752" width="5" height="21" style="fill:#F55D3E"/><use xlink:href="#icon-side" x="0" y="710.752" width="5" height="21" style="fill:#ffffff"/><use xlink:href="#icon-side" x="0" y="741.752" width="5" height="21" style="fill:#000000"/><use xlink:href="#icon-side" x="0" y="772.752" width="5" height="21" style="fill:#343C88"/><use xlink:href="#icon-soc-fb" x="0" y="803.752" width="32" height="32" style="fill:#F55D3E"/><use xlink:href="#icon-soc-fb" x="0" y="845.752" width="32" height="32" style="fill:#ffffff"/><use xlink:href="#icon-soc-fb" x="0" y="887.752" width="32" height="32" style="fill:#000000"/><use xlink:href="#icon-soc-fb" x="0" y="929.752" width="32" height="32" style="fill:#343C88"/><use xlink:href="#icon-soc-inst" x="0" y="971.752" width="32" height="32" style="fill:#F55D3E"/><use xlink:href="#icon-soc-inst" x="0" y="1013.752" width="32" height="32" style="fill:#ffffff"/><use xlink:href="#icon-soc-inst" x="0" y="1055.752" width="32" height="32" style="fill:#000000"/><use xlink:href="#icon-soc-inst" x="0" y="1097.752" width="32" height="32" style="fill:#343C88"/><use xlink:href="#icon-soc-tgm" x="0" y="1139.752" width="32" height="32" style="fill:#F55D3E"/><use xlink:href="#icon-soc-tgm" x="0" y="1181.752" width="32" height="32" style="fill:#ffffff"/><use xlink:href="#icon-soc-tgm" x="0" y="1223.752" width="32" height="32" style="fill:#000000"/><use xlink:href="#icon-soc-tgm" x="0" y="1265.752" width="32" height="32" style="fill:#343C88"/><use xlink:href="#icon-star-fill" x="0" y="1307.752" width="21" height="20" style="fill:#F55D3E"/><use xlink:href="#icon-star-fill" x="0" y="1337.752" width="21" height="20" style="fill:#ffffff"/><use xlink:href="#icon-star-fill" x="0" y="1367.752" width="21" height="20" style="fill:#000000"/><use xlink:href="#icon-star-fill" x="0" y="1397.752" width="21" height="20" style="fill:#343C88"/><use xlink:href="#icon-star" x="0" y="1427.752" width="21" height="20" style="fill:#F55D3E"/><use xlink:href="#icon-star" x="0" y="1457.752" width="21" height="20" style="fill:#ffffff"/><use xlink:href="#icon-star" x="0" y="1487.752" width="21" height="20" style="fill:#000000"/><use xlink:href="#icon-star" x="0" y="1517.752" width="21" height="20" style="fill:#343C88"/><use xlink:href="#icon-trash" x="0" y="1547.752" width="21" height="24" style="fill:#F55D3E"/><use xlink:href="#icon-trash" x="0" y="1581.752" width="21" height="24" style="fill:#ffffff"/><use xlink:href="#icon-trash" x="0" y="1615.752" width="21" height="24" style="fill:#000000"/><use xlink:href="#icon-trash" x="0" y="1649.752" width="21" height="24" style="fill:#343C88"/><use xlink:href="#icon-user" x="0" y="1683.752" width="18" height="20" style="fill:#F55D3E"/><use xlink:href="#icon-user" x="0" y="1713.752" width="18" height="20" style="fill:#ffffff"/><use xlink:href="#icon-user" x="0" y="1743.752" width="18" height="20" style="fill:#000000"/><use xlink:href="#icon-user" x="0" y="1773.752" width="18" height="20" style="fill:#343C88"/><use xlink:href="#icon-zoom" x="0" y="1803.752" width="20" height="20" style="fill:#F55D3E"/><use xlink:href="#icon-zoom" x="0" y="1833.752" width="20" height="20" style="fill:#ffffff"/><use xlink:href="#icon-zoom" x="0" y="1863.752" width="20" height="20" style="fill:#000000"/><use xlink:href="#icon-zoom" x="0" y="1893.752" width="20" height="20" style="fill:#343C88"/></svg>