<svg width="135" height="40" viewBox="0 0 135 40" fill="none" xmlns="http://www.w3.org/2000/svg">
<path d="M68.136 21.7509C65.784 21.7509 63.867 23.5399 63.867 26.0039C63.867 28.4529 65.784 30.2569 68.136 30.2569C70.489 30.2569 72.406 28.4529 72.406 26.0039C72.405 23.5399 70.488 21.7509 68.136 21.7509ZM68.136 28.5829C66.847 28.5829 65.736 27.5199 65.736 26.0049C65.736 24.4739 66.848 23.4269 68.136 23.4269C69.425 23.4269 70.536 24.4739 70.536 26.0049C70.536 27.5189 69.425 28.5829 68.136 28.5829ZM58.822 21.7509C56.47 21.7509 54.553 23.5399 54.553 26.0039C54.553 28.4529 56.47 30.2569 58.822 30.2569C61.175 30.2569 63.092 28.4529 63.092 26.0039C63.092 23.5399 61.175 21.7509 58.822 21.7509ZM58.822 28.5829C57.533 28.5829 56.422 27.5199 56.422 26.0049C56.422 24.4739 57.534 23.4269 58.822 23.4269C60.111 23.4269 61.222 24.4739 61.222 26.0049C61.223 27.5189 60.111 28.5829 58.822 28.5829ZM47.744 23.0569V24.8609H52.062C51.933 25.8759 51.595 26.6169 51.079 27.1319C50.451 27.7599 49.468 28.4529 47.744 28.4529C45.086 28.4529 43.008 26.3099 43.008 23.6519C43.008 20.9939 45.086 18.8509 47.744 18.8509C49.178 18.8509 50.225 19.4149 50.998 20.1399L52.271 18.8669C51.191 17.8359 49.758 17.0469 47.744 17.0469C44.103 17.0469 41.042 20.0109 41.042 23.6519C41.042 27.2929 44.103 30.2569 47.744 30.2569C49.709 30.2569 51.192 29.6119 52.351 28.4039C53.543 27.2119 53.914 25.5359 53.914 24.1829C53.914 23.7649 53.882 23.3779 53.817 23.0559H47.744V23.0569ZM93.052 24.4579C92.698 23.5079 91.618 21.7509 89.411 21.7509C87.22 21.7509 85.399 23.4749 85.399 26.0039C85.399 28.3879 87.204 30.2569 89.62 30.2569C91.569 30.2569 92.697 29.0649 93.165 28.3719L91.715 27.4049C91.232 28.1139 90.571 28.5809 89.62 28.5809C88.67 28.5809 87.993 28.1459 87.558 27.2919L93.245 24.9399L93.052 24.4579ZM87.252 25.8759C87.204 24.2319 88.525 23.3949 89.476 23.3949C90.217 23.3949 90.845 23.7659 91.055 24.2969L87.252 25.8759ZM82.629 29.9999H84.497V17.4989H82.629V29.9999ZM79.567 22.7019H79.503C79.084 22.2019 78.278 21.7509 77.264 21.7509C75.137 21.7509 73.188 23.6199 73.188 26.0209C73.188 28.4049 75.137 30.2579 77.264 30.2579C78.279 30.2579 79.084 29.8069 79.503 29.2919H79.567V29.9039C79.567 31.5309 78.697 32.4009 77.296 32.4009C76.152 32.4009 75.443 31.5799 75.153 30.8869L73.526 31.5639C73.993 32.6909 75.233 34.0769 77.296 34.0769C79.487 34.0769 81.34 32.7879 81.34 29.6459V22.0099H79.568V22.7019H79.567ZM77.425 28.5829C76.136 28.5829 75.057 27.5029 75.057 26.0209C75.057 24.5219 76.136 23.4269 77.425 23.4269C78.697 23.4269 79.696 24.5219 79.696 26.0209C79.696 27.5029 78.697 28.5829 77.425 28.5829ZM101.806 17.4989H97.335V29.9999H99.2V25.2639H101.805C103.873 25.2639 105.907 23.7669 105.907 21.3819C105.907 18.9969 103.874 17.4989 101.806 17.4989ZM101.854 23.5239H99.2V19.2389H101.854C103.249 19.2389 104.041 20.3939 104.041 21.3819C104.041 22.3499 103.249 23.5239 101.854 23.5239ZM113.386 21.7289C112.035 21.7289 110.636 22.3239 110.057 23.6429L111.713 24.3339C112.067 23.6429 112.727 23.4169 113.418 23.4169C114.383 23.4169 115.364 23.9959 115.38 25.0249V25.1539C115.042 24.9609 114.318 24.6719 113.434 24.6719C111.649 24.6719 109.831 25.6529 109.831 27.4859C109.831 29.1589 111.295 30.2359 112.935 30.2359C114.189 30.2359 114.881 29.6729 115.315 29.0129H115.379V29.9779H117.181V25.1849C117.182 22.9669 115.524 21.7289 113.386 21.7289ZM113.16 28.5799C112.55 28.5799 111.697 28.2739 111.697 27.5179C111.697 26.5529 112.759 26.1829 113.676 26.1829C114.495 26.1829 114.882 26.3599 115.38 26.6009C115.235 27.7599 114.238 28.5799 113.16 28.5799ZM123.743 22.0019L121.604 27.4219H121.54L119.32 22.0019H117.31L120.639 29.5769L118.741 33.7909H120.687L125.818 22.0019H123.743ZM106.937 29.9999H108.802V17.4989H106.937V29.9999Z" fill="white"/>
<path d="M46.7812 14.3984H45.6992V13H42.2695V14.3945H41.1602L41.0977 12.0586H41.5273C41.7591 11.8659 41.9375 11.5833 42.0625 11.2109C42.1901 10.8359 42.276 10.3724 42.3203 9.82031L42.4844 7.3125H46.2109V12.0586H46.875L46.7812 14.3984ZM42.8711 12.0586H45.0391V8.26172H43.5977L43.5 9.75781C43.4219 10.7604 43.2122 11.5273 42.8711 12.0586Z" fill="white"/>
<path d="M52.0703 10.2852C52.0703 10.8451 51.9714 11.3359 51.7734 11.7578C51.5755 12.1797 51.2917 12.5052 50.9219 12.7344C50.5547 12.9635 50.1328 13.0781 49.6562 13.0781C49.1849 13.0781 48.7643 12.9648 48.3945 12.7383C48.0247 12.5117 47.7383 12.1888 47.5352 11.7695C47.332 11.3477 47.2292 10.8633 47.2266 10.3164V10.0352C47.2266 9.47526 47.3268 8.98307 47.5273 8.55859C47.7305 8.13151 48.0156 7.80469 48.3828 7.57812C48.7526 7.34896 49.1745 7.23438 49.6484 7.23438C50.1224 7.23438 50.543 7.34896 50.9102 7.57812C51.2799 7.80469 51.5651 8.13151 51.7656 8.55859C51.9688 8.98307 52.0703 9.47396 52.0703 10.0312V10.2852ZM50.8828 10.0273C50.8828 9.43099 50.776 8.97786 50.5625 8.66797C50.349 8.35807 50.0443 8.20312 49.6484 8.20312C49.2552 8.20312 48.9518 8.35677 48.7383 8.66406C48.5247 8.96875 48.4167 9.41667 48.4141 10.0078V10.2852C48.4141 10.8659 48.5208 11.3164 48.7344 11.6367C48.9479 11.957 49.2552 12.1172 49.6562 12.1172C50.0495 12.1172 50.3516 11.9635 50.5625 11.6562C50.7734 11.3464 50.8802 10.8958 50.8828 10.3047V10.0273Z" fill="white"/>
<path d="M57.3867 11.1055C57.3424 11.7174 57.1159 12.1992 56.707 12.5508C56.3008 12.9023 55.7643 13.0781 55.0977 13.0781C54.3685 13.0781 53.7943 12.8333 53.375 12.3438C52.9583 11.8516 52.75 11.1771 52.75 10.3203V9.97266C52.75 9.42578 52.8464 8.94401 53.0391 8.52734C53.2318 8.11068 53.5065 7.79167 53.8633 7.57031C54.2227 7.34635 54.6393 7.23438 55.1133 7.23438C55.7695 7.23438 56.2982 7.41016 56.6992 7.76172C57.1003 8.11328 57.332 8.60677 57.3945 9.24219H56.2227C56.194 8.875 56.0911 8.60938 55.9141 8.44531C55.7396 8.27865 55.4727 8.19531 55.1133 8.19531C54.7227 8.19531 54.4297 8.33594 54.2344 8.61719C54.0417 8.89583 53.9427 9.32943 53.9375 9.91797V10.3477C53.9375 10.9622 54.0299 11.4115 54.2148 11.6953C54.4023 11.9792 54.6966 12.1211 55.0977 12.1211C55.4596 12.1211 55.7292 12.0391 55.9062 11.875C56.0859 11.7083 56.1888 11.4518 56.2148 11.1055H57.3867Z" fill="white"/>
<path d="M62.3203 8.26172H60.5781V13H59.4062V8.26172H57.6875V7.3125H62.3203V8.26172Z" fill="white"/>
<path d="M65.125 10L66.1602 7.3125H67.4258L65.4375 12.0039L65.2773 12.3125C64.9831 12.8255 64.5326 13.082 63.9258 13.082L63.5156 13.0664L63.5039 12.125C63.5664 12.1354 63.668 12.1406 63.8086 12.1406C63.9727 12.1406 64.1042 12.112 64.2031 12.0547C64.3047 11.9974 64.3893 11.8919 64.457 11.7383L64.6016 11.3672L62.6055 7.3125H63.8672L65.125 10Z" fill="white"/>
<path d="M72.6797 13H71.5039V8.26172H69.2266V13H68.0547V7.3125H72.6797V13Z" fill="white"/>
<path d="M78.3398 13H77.168V10.5625H74.8828V13H73.7109V7.3125H74.8828V9.61719H77.168V7.3125H78.3398V13Z" fill="white"/>
<path d="M84.0391 10.2852C84.0391 10.8451 83.9401 11.3359 83.7422 11.7578C83.5443 12.1797 83.2604 12.5052 82.8906 12.7344C82.5234 12.9635 82.1016 13.0781 81.625 13.0781C81.1536 13.0781 80.7331 12.9648 80.3633 12.7383C79.9935 12.5117 79.707 12.1888 79.5039 11.7695C79.3008 11.3477 79.1979 10.8633 79.1953 10.3164V10.0352C79.1953 9.47526 79.2956 8.98307 79.4961 8.55859C79.6992 8.13151 79.9844 7.80469 80.3516 7.57812C80.7214 7.34896 81.1432 7.23438 81.6172 7.23438C82.0911 7.23438 82.5117 7.34896 82.8789 7.57812C83.2487 7.80469 83.5339 8.13151 83.7344 8.55859C83.9375 8.98307 84.0391 9.47396 84.0391 10.0312V10.2852ZM82.8516 10.0273C82.8516 9.43099 82.7448 8.97786 82.5312 8.66797C82.3177 8.35807 82.013 8.20312 81.6172 8.20312C81.224 8.20312 80.9206 8.35677 80.707 8.66406C80.4935 8.96875 80.3854 9.41667 80.3828 10.0078V10.2852C80.3828 10.8659 80.4896 11.3164 80.7031 11.6367C80.9167 11.957 81.224 12.1172 81.625 12.1172C82.0182 12.1172 82.3203 11.9635 82.5312 11.6562C82.7422 11.3464 82.849 10.8958 82.8516 10.3047V10.0273Z" fill="white"/>
<path d="M91.5117 13H90.3398V10.5625H88.0547V13H86.8828V7.3125H88.0547V9.61719H90.3398V7.3125H91.5117V13Z" fill="white"/>
<path d="M95.8203 11.8281H93.7656L93.375 13H92.1289L94.2461 7.3125H95.332L97.4609 13H96.2148L95.8203 11.8281ZM94.082 10.8789H95.5039L94.7891 8.75L94.082 10.8789Z" fill="white"/>
<path fill-rule="evenodd" clip-rule="evenodd" d="M10.156 7.96666C10.0379 8.23416 9.97266 8.56193 9.97266 8.94318V31.0592C9.97266 31.4413 10.038 31.7691 10.1562 32.0365L22.1902 20.0008L10.156 7.96666ZM10.8512 32.7557C11.2973 32.9465 11.8792 32.886 12.5137 32.5262L26.6708 24.4814L22.8973 20.7079L10.8512 32.7557ZM27.5732 23.9696L32.0147 21.4462C33.4116 20.6512 33.4116 19.3522 32.0147 18.5582L27.5712 16.0333L23.6043 20.0008L27.5732 23.9696ZM26.6694 15.5209L12.5137 7.47719C11.8791 7.11661 11.2972 7.05645 10.8512 7.24759L22.8972 19.2937L26.6694 15.5209Z" fill="white"/>
<path d="M5 1H130V-1H5V1ZM134 5V35H136V5H134ZM130 39H5V41H130V39ZM1 35V5H-1V35H1ZM5 39C2.79086 39 1 37.2091 1 35H-1C-1 38.3137 1.68629 41 5 41V39ZM134 35C134 37.2091 132.209 39 130 39V41C133.314 41 136 38.3137 136 35H134ZM130 1C132.209 1 134 2.79086 134 5H136C136 1.68629 133.314 -1 130 -1V1ZM5 -1C1.68629 -1 -1 1.68629 -1 5H1C1 2.79086 2.79086 1 5 1V-1Z" fill="white"/>
</svg>
