<svg width="135" height="40" viewBox="0 0 135 40" fill="none" xmlns="http://www.w3.org/2000/svg">
<path d="M37.44 15.19C36.4533 15.19 35.64 14.91 35 14.35L35.51 13.43C36.0567 13.8967 36.63 14.13 37.23 14.13C37.5967 14.13 37.9233 14.04 38.21 13.86C38.4967 13.6733 38.64 13.4133 38.64 13.08C38.64 12.6733 38.49 12.3967 38.19 12.25C37.8967 12.0967 37.46 12.0167 36.88 12.01H36.57V11.05H36.91C37.4567 11.05 37.86 10.9667 38.12 10.8C38.38 10.6267 38.51 10.35 38.51 9.97C38.51 9.68333 38.3867 9.45667 38.14 9.29C37.9 9.12333 37.6 9.04 37.24 9.04C36.6867 9.04 36.17 9.24333 35.69 9.65L35.23 8.82C35.55 8.54 35.8867 8.33333 36.24 8.2C36.6 8.06667 37.04 8 37.56 8C38.1733 8 38.6733 8.17333 39.06 8.52C39.4533 8.86 39.65 9.29 39.65 9.81C39.65 10.5833 39.2667 11.1333 38.5 11.46C39.36 11.7267 39.79 12.2867 39.79 13.14C39.79 13.7467 39.5733 14.24 39.14 14.62C38.7067 15 38.14 15.19 37.44 15.19Z" fill="white"/>
<path d="M42.1897 15.19C41.7297 15.19 41.3397 15.0467 41.0197 14.76C40.7064 14.4667 40.5497 14.0733 40.5497 13.58V13.52C40.5497 12.9667 40.7197 12.5467 41.0597 12.26C41.4064 11.9667 41.8697 11.82 42.4497 11.82C42.883 11.82 43.2897 11.89 43.6697 12.03V11.82C43.6697 11.0933 43.283 10.73 42.5097 10.73C42.103 10.73 41.6597 10.83 41.1797 11.03L40.9597 10.1C41.493 9.85333 42.0664 9.73 42.6797 9.73C43.3664 9.73 43.8864 9.90667 44.2397 10.26C44.5997 10.6133 44.7797 11.1267 44.7797 11.8V15.09H43.6697V14.44C43.303 14.94 42.8097 15.19 42.1897 15.19ZM42.5297 14.34C42.863 14.34 43.1364 14.2467 43.3497 14.06C43.5697 13.8667 43.6797 13.62 43.6797 13.32V12.78C43.393 12.6533 43.063 12.59 42.6897 12.59C42.363 12.59 42.1097 12.6667 41.9297 12.82C41.7497 12.9733 41.6597 13.1867 41.6597 13.46V13.52C41.6597 13.78 41.7397 13.9833 41.8997 14.13C42.0597 14.27 42.2697 14.34 42.5297 14.34Z" fill="white"/>
<path d="M46.0159 15.09V9.79H49.2959V10.76H47.1459V15.09H46.0159Z" fill="white"/>
<path d="M50.1273 16.6V9.79H51.2573V10.64C51.6639 10.0067 52.1806 9.69 52.8073 9.69C53.3873 9.69 53.8773 9.92667 54.2773 10.4C54.6839 10.8667 54.8873 11.5233 54.8873 12.37V12.51C54.8873 13.3567 54.6839 14.0167 54.2773 14.49C53.8773 14.9567 53.3873 15.19 52.8073 15.19C52.2073 15.19 51.6906 14.89 51.2573 14.29V16.6H50.1273ZM51.6073 13.73C51.8539 14.0367 52.1539 14.19 52.5073 14.19C52.8606 14.19 53.1573 14.0367 53.3973 13.73C53.6373 13.4233 53.7573 13.0133 53.7573 12.5V12.39C53.7573 11.8767 53.6373 11.4667 53.3973 11.16C53.1573 10.8467 52.8606 10.69 52.5073 10.69C52.1539 10.69 51.8539 10.8467 51.6073 11.16C51.3673 11.4733 51.2473 11.8833 51.2473 12.39V12.5C51.2473 13.0067 51.3673 13.4167 51.6073 13.73Z" fill="white"/>
<path d="M56.6918 16.63C56.2985 16.63 55.9285 16.54 55.5818 16.36L55.9218 15.49C56.1418 15.61 56.3585 15.67 56.5718 15.67C56.8651 15.67 57.0918 15.48 57.2518 15.1L55.3518 9.79H56.5418L57.7818 13.72L58.9718 9.79H60.1418L58.2918 15.2C58.1185 15.7133 57.9085 16.08 57.6618 16.3C57.4151 16.52 57.0918 16.63 56.6918 16.63Z" fill="white"/>
<path d="M62.3302 15.2C61.5568 15.2 60.9168 14.9933 60.4102 14.58L60.8202 13.69C61.2668 14.0233 61.6968 14.19 62.1102 14.19C62.4035 14.19 62.6468 14.1333 62.8402 14.02C63.0402 13.9067 63.1402 13.7367 63.1402 13.51C63.1402 13.2433 63.0468 13.06 62.8602 12.96C62.6735 12.86 62.3435 12.81 61.8702 12.81H61.6202V11.98H61.8702C62.2768 11.98 62.5702 11.9267 62.7502 11.82C62.9302 11.7133 63.0202 11.52 63.0202 11.24C63.0202 10.8533 62.7435 10.66 62.1902 10.66C61.7102 10.66 61.2935 10.8033 60.9402 11.09L60.5602 10.3C61.0468 9.9 61.6535 9.7 62.3802 9.7C62.9002 9.7 63.3268 9.83 63.6602 10.09C63.9935 10.3433 64.1602 10.6767 64.1602 11.09C64.1602 11.6567 63.8835 12.0633 63.3302 12.31C63.9435 12.5233 64.2502 12.9533 64.2502 13.6C64.2502 14.0667 64.0702 14.45 63.7102 14.75C63.3568 15.05 62.8968 15.2 62.3302 15.2Z" fill="white"/>
<path d="M69.6226 9.79V15.09H68.5226V11.61L66.4026 15.09H65.3226V9.79H66.4326V13.25L68.5326 9.79H69.6226Z" fill="white"/>
<path d="M71.8883 15.09V10.76H70.4283V9.79H74.4583V10.76H73.0083V15.09H71.8883Z" fill="white"/>
<path d="M77.3563 15.2C76.6563 15.2 76.073 14.9533 75.6063 14.46C75.1463 13.9667 74.9163 13.3133 74.9163 12.5V12.42C74.9163 11.6267 75.1297 10.9767 75.5563 10.47C75.9897 9.95667 76.5363 9.7 77.1963 9.7C77.8963 9.7 78.4397 9.96 78.8263 10.48C79.213 10.9933 79.4063 11.66 79.4063 12.48C79.4063 12.66 79.403 12.7933 79.3963 12.88H76.0563C76.1097 13.32 76.2563 13.6567 76.4963 13.89C76.743 14.1233 77.043 14.24 77.3963 14.24C77.863 14.24 78.2897 14.0567 78.6763 13.69L79.2063 14.4C78.7063 14.9333 78.0897 15.2 77.3563 15.2ZM76.0463 12.09H78.2963C78.2697 11.6567 78.1597 11.3067 77.9663 11.04C77.773 10.7733 77.5163 10.64 77.1963 10.64C76.883 10.64 76.623 10.77 76.4163 11.03C76.2097 11.2833 76.0863 11.6367 76.0463 12.09Z" fill="white"/>
<path d="M83.0277 9.79H85.2477C85.761 9.79 86.171 9.91 86.4777 10.15C86.791 10.39 86.9477 10.7267 86.9477 11.16C86.9477 11.7133 86.6877 12.11 86.1677 12.35C86.841 12.5833 87.1777 13.0033 87.1777 13.61C87.1777 14.0833 87.0077 14.45 86.6677 14.71C86.3277 14.9633 85.8677 15.09 85.2877 15.09H83.0277V9.79ZM84.1577 14.19H85.1177C85.4043 14.19 85.6277 14.13 85.7877 14.01C85.9477 13.89 86.0277 13.7167 86.0277 13.49C86.0277 13.27 85.9443 13.1 85.7777 12.98C85.6177 12.8533 85.3843 12.79 85.0777 12.79H84.1577V14.19ZM84.1577 11.99H85.0077C85.2677 11.99 85.471 11.9333 85.6177 11.82C85.771 11.7067 85.8477 11.54 85.8477 11.32C85.8477 11.1133 85.7777 10.9567 85.6377 10.85C85.4977 10.7367 85.301 10.68 85.0477 10.68H84.1577V11.99Z" fill="white"/>
<path d="M81.5257 19.2009V21.4919H80.0896V22.9943H81.5257V28.0993C81.5257 29.8425 82.3143 30.5397 84.2981 30.5397C84.6468 30.5397 84.9788 30.4982 85.2693 30.4484V28.9626C85.0203 28.9875 84.8626 29.0041 84.5887 29.0041C83.7005 29.0041 83.3104 28.589 83.3104 27.6428V22.9943H85.2693V21.4919H83.3104V19.2009H81.5257Z" fill="white"/>
<path d="M90.3232 30.6642C92.9628 30.6642 94.5815 28.8962 94.5815 25.966C94.5815 23.0524 92.9545 21.2761 90.3232 21.2761C87.6835 21.2761 86.0566 23.0524 86.0566 25.966C86.0566 28.8962 87.6752 30.6642 90.3232 30.6642ZM90.3232 29.0788C88.7709 29.0788 87.8994 27.9416 87.8994 25.966C87.8994 24.007 88.7709 22.8615 90.3232 22.8615C91.8671 22.8615 92.747 24.007 92.747 25.966C92.747 27.9333 91.8671 29.0788 90.3232 29.0788Z" fill="white"/>
<path d="M95.9664 30.4899H97.7511V25.1525C97.7511 23.8825 98.7056 23.0275 100.059 23.0275C100.374 23.0275 100.905 23.0856 101.055 23.1354V21.3757C100.864 21.3259 100.524 21.301 100.258 21.301C99.0792 21.301 98.0748 21.9484 97.8175 22.8366H97.6846V21.4504H95.9664V30.4899Z" fill="white"/>
<path d="M105.486 22.7951C106.806 22.7951 107.669 23.7165 107.711 25.1359H103.145C103.245 23.7248 104.166 22.7951 105.486 22.7951ZM107.702 28.0495C107.37 28.7551 106.632 29.1452 105.552 29.1452C104.125 29.1452 103.203 28.1408 103.145 26.5554V26.4557H109.529V25.8332C109.529 22.9943 108.009 21.2761 105.494 21.2761C102.946 21.2761 101.327 23.1105 101.327 25.9992C101.327 28.8879 102.913 30.6642 105.503 30.6642C107.57 30.6642 109.014 29.6681 109.421 28.0495H107.702Z" fill="white"/>
<path d="M69.8221 27.1518C69.9598 29.3715 71.8095 30.791 74.5626 30.791C77.505 30.791 79.3462 29.3026 79.3462 26.9281C79.3462 25.0611 78.2966 24.0287 75.7499 23.435L74.382 23.0995C72.7645 22.7209 72.1106 22.2133 72.1106 21.3272C72.1106 20.2087 73.1259 19.4774 74.6487 19.4774C76.0941 19.4774 77.0921 20.1915 77.2727 21.3358H79.1483C79.0365 19.2451 77.1953 17.7739 74.6745 17.7739C71.9644 17.7739 70.1576 19.2451 70.1576 21.4562C70.1576 23.2802 71.1815 24.3642 73.427 24.889L75.0272 25.2762C76.6705 25.6634 77.3932 26.2312 77.3932 27.1776C77.3932 28.2788 76.2575 29.0789 74.7089 29.0789C73.0484 29.0789 71.8955 28.3304 71.7321 27.1518H69.8221Z" fill="white"/>
<path d="M51.3348 21.301C50.1063 21.301 49.0437 21.9152 48.4959 22.9445H48.3631V21.4504H46.6448V33.4948H48.4295V29.1203H48.5706C49.0437 30.0749 50.0647 30.6393 51.3514 30.6393C53.6341 30.6393 55.0867 28.8381 55.0867 25.966C55.0867 23.0939 53.6341 21.301 51.3348 21.301ZM50.8284 29.0373C49.3343 29.0373 48.3963 27.8586 48.3963 25.9743C48.3963 24.0817 49.3343 22.903 50.8367 22.903C52.3475 22.903 53.2522 24.0568 53.2522 25.966C53.2522 27.8835 52.3475 29.0373 50.8284 29.0373Z" fill="white"/>
<path d="M61.3316 21.301C60.103 21.301 59.0405 21.9152 58.4927 22.9445H58.3599V21.4504H56.6416V33.4948H58.4263V29.1203H58.5674C59.0405 30.0749 60.0615 30.6393 61.3482 30.6393C63.6309 30.6393 65.0835 28.8381 65.0835 25.966C65.0835 23.0939 63.6309 21.301 61.3316 21.301ZM60.8252 29.0373C59.3311 29.0373 58.3931 27.8586 58.3931 25.9743C58.3931 24.0817 59.3311 22.903 60.8335 22.903C62.3443 22.903 63.249 24.0568 63.249 25.966C63.249 27.8835 62.3443 29.0373 60.8252 29.0373Z" fill="white"/>
<path d="M43.4428 30.4899H45.4905L41.008 18.075H38.9346L34.4521 30.4899H36.431L37.5752 27.1948H42.3072L43.4428 30.4899ZM39.8724 20.3292H40.0186L41.8168 25.5773H38.0656L39.8724 20.3292Z" fill="white"/>
<path d="M24.769 20.3011C24.7907 18.6201 25.6934 17.0295 27.1256 16.149C26.2221 14.8587 24.7088 14.0406 23.1344 13.9913C21.4552 13.8151 19.8272 14.9962 18.9715 14.9962C18.0992 14.9962 16.7817 14.0088 15.363 14.038C13.5137 14.0978 11.7898 15.1491 10.8901 16.7659C8.95607 20.1143 10.3987 25.0354 12.2513 27.742C13.1782 29.0673 14.2615 30.5478 15.6789 30.4953C17.066 30.4377 17.584 29.6108 19.2583 29.6108C20.9171 29.6108 21.4031 30.4953 22.8493 30.4619C24.3377 30.4377 25.2754 29.1306 26.1698 27.7927C26.8358 26.8484 27.3483 25.8047 27.6882 24.7002C25.9391 23.9604 24.771 22.2002 24.769 20.3011Z" fill="white"/>
<path d="M22.0373 12.2113C22.8489 11.2371 23.2487 9.98494 23.1518 8.7207C21.912 8.85092 20.7668 9.44348 19.9443 10.3803C19.14 11.2956 18.7214 12.5258 18.8006 13.7417C20.0408 13.7545 21.2601 13.178 22.0373 12.2113Z" fill="white"/>
<path d="M4.32122 39.4672L3.93853 40.391L4.32122 39.4672ZM134.467 35.6788L133.543 35.2961L134.467 35.6788ZM130.679 39.4672L131.061 40.391L130.679 39.4672ZM130.679 0.532843L130.296 1.45672L130.679 0.532843ZM134.467 4.32122L133.543 4.7039L134.467 4.32122ZM10.5 1H124.5V-1H10.5V1ZM134 10.5V29.5H136V10.5H134ZM124.5 39H10.5V41H124.5V39ZM1 29.5V10.5H-1V29.5H1ZM10.5 39C8.85552 39 7.67225 38.9995 6.73798 38.9357C5.8127 38.8726 5.20494 38.7508 4.7039 38.5433L3.93853 40.391C4.72389 40.7163 5.57473 40.861 6.60184 40.9311C7.61997 41.0005 8.88289 41 10.5 41V39ZM-1 29.5C-1 31.1171 -1.00054 32.38 -0.931075 33.3982C-0.860996 34.4253 -0.716341 35.2761 -0.391036 36.0615L1.45672 35.2961C1.24918 34.7951 1.12742 34.1873 1.06429 33.262C1.00054 32.3278 1 31.1445 1 29.5H-1ZM4.7039 38.5433C3.23373 37.9343 2.06569 36.7663 1.45672 35.2961L-0.391036 36.0615C0.420915 38.0217 1.97831 39.5791 3.93853 40.391L4.7039 38.5433ZM134 29.5C134 31.1445 133.999 32.3278 133.936 33.262C133.873 34.1873 133.751 34.7951 133.543 35.2961L135.391 36.0615C135.716 35.2761 135.861 34.4253 135.931 33.3982C136.001 32.38 136 31.1171 136 29.5H134ZM124.5 41C126.117 41 127.38 41.0005 128.398 40.9311C129.425 40.861 130.276 40.7163 131.061 40.391L130.296 38.5433C129.795 38.7508 129.187 38.8726 128.262 38.9357C127.328 38.9995 126.144 39 124.5 39V41ZM133.543 35.2961C132.934 36.7663 131.766 37.9343 130.296 38.5433L131.061 40.391C133.022 39.5791 134.579 38.0217 135.391 36.0615L133.543 35.2961ZM124.5 1C126.144 1 127.328 1.00054 128.262 1.06429C129.187 1.12742 129.795 1.24918 130.296 1.45672L131.061 -0.391036C130.276 -0.716341 129.425 -0.860996 128.398 -0.931075C127.38 -1.00054 126.117 -1 124.5 -1V1ZM136 10.5C136 8.88289 136.001 7.61997 135.931 6.60184C135.861 5.57473 135.716 4.72389 135.391 3.93853L133.543 4.7039C133.751 5.20494 133.873 5.8127 133.936 6.73798C133.999 7.67225 134 8.85552 134 10.5H136ZM130.296 1.45672C131.766 2.06569 132.934 3.23373 133.543 4.7039L135.391 3.93853C134.579 1.97831 133.022 0.420915 131.061 -0.391036L130.296 1.45672ZM10.5 -1C8.88289 -1 7.61997 -1.00054 6.60184 -0.931075C5.57473 -0.860996 4.72389 -0.716341 3.93853 -0.391036L4.7039 1.45672C5.20494 1.24918 5.8127 1.12742 6.73798 1.06429C7.67225 1.00054 8.85552 1 10.5 1V-1ZM1 10.5C1 8.85552 1.00054 7.67225 1.06429 6.73798C1.12742 5.8127 1.24918 5.20494 1.45672 4.7039L-0.391036 3.93853C-0.716341 4.72389 -0.860996 5.57473 -0.931075 6.60184C-1.00054 7.61997 -1 8.88289 -1 10.5H1ZM3.93853 -0.391036C1.97831 0.420915 0.420915 1.97831 -0.391036 3.93853L1.45672 4.7039C2.06569 3.23373 3.23373 2.06569 4.7039 1.45672L3.93853 -0.391036Z" fill="white"/>
</svg>
